<?xml version="1.0" standalone="no"?>
<!DOCTYPE svg PUBLIC "-//W3C//DTD SVG 20010904//EN"
 "http://www.w3.org/TR/2001/REC-SVG-20010904/DTD/svg10.dtd">
<svg version="1.0" xmlns="http://www.w3.org/2000/svg"
 width="52.000000pt" height="52.000000pt" viewBox="0 0 52.000000 42.000000"
 preserveAspectRatio="xMidYMid meet">

<g transform="translate(0.000000,52.000000) scale(0.130000,-0.130000)"
fill="#c9b8bc" stroke="none">
<path d="M77 402 c-14 -16 -17 -43 -17 -164 0 -188 -10 -178 182 -178 188 0
178 -10 178 182 0 188 10 178 -182 178 -128 0 -147 -2 -161 -18z m308 -162 l0
-145 -145 0 -145 0 -3 134 c-1 74 0 141 2 148 4 11 37 13 148 11 l143 -3 0
-145z"/>
<path d="M140 155 c0 -12 18 -15 100 -15 82 0 100 3 100 15 0 12 -18 15 -100
15 -82 0 -100 -3 -100 -15z"/>
</g>
</svg>
